<?xml version="1.0" standalone="no"?><!DOCTYPE svg PUBLIC "-//W3C//DTD SVG 1.1//EN" "http://www.w3.org/Graphics/SVG/1.1/DTD/svg11.dtd"><svg class="icon" width="32px" height="32.00px" viewBox="0 0 1024 1024" version="1.1" xmlns="http://www.w3.org/2000/svg"><path fill="#333333" d="M910.222222 0H113.777778a113.777778 113.777778 0 0 0-113.777778 113.777778v170.666666a56.888889 56.888889 0 0 0 113.777778 0V113.777778h796.444444v796.444444H113.777778v-170.666666a56.888889 56.888889 0 0 0-113.777778 0v170.666666a113.777778 113.777778 0 0 0 113.777778 113.777778h796.444444c62.577778 0 113.777778-51.2 113.777778-113.777778V113.777778c0-62.577778-51.2-113.777778-113.777778-113.777778zM443.392 756.280889a56.775111 56.775111 0 0 0 80.327111 0L734.435556 545.564444a47.445333 47.445333 0 0 0 0-67.015111L523.719111 267.719111a56.775111 56.775111 0 0 0-80.384 80.213333L550.115556 455.111111H56.888889a56.888889 56.888889 0 1 0 0 113.777778h493.226667l-106.780445 107.178667a56.775111 56.775111 0 0 0 0.056889 80.213333z" /></svg>