<?xml version="1.0" standalone="no"?><!DOCTYPE svg PUBLIC "-//W3C//DTD SVG 1.1//EN" "http://www.w3.org/Graphics/SVG/1.1/DTD/svg11.dtd"><svg class="icon" width="32px" height="32.00px" viewBox="0 0 1024 1024" version="1.1" xmlns="http://www.w3.org/2000/svg"><path fill="#333333" d="M511.296 925.792l-102.496-167.104H192.192a117.152 117.152 0 0 1-116.992-116.992V215.2a117.152 117.152 0 0 1 116.992-116.992h639.68a117.152 117.152 0 0 1 117.024 116.992V641.6a117.152 117.152 0 0 1-116.992 116.992h-210.496l-110.08 167.2zM192.192 145.696a69.6 69.6 0 0 0-69.504 69.504V641.6c0 38.4 31.2 69.6 69.504 69.6h243.104l77.408 126.08 83.104-126.08h236a69.632 69.632 0 0 0 69.504-69.6V215.2a69.6 69.6 0 0 0-69.504-69.504H192.192zM232.096 435.104a60 60 0 1 0 120 0 60 60 0 0 0-120 0zM452 435.104a60 60 0 1 0 120 0 60 60 0 0 0-120 0zM671.904 435.104a60 60 0 1 0 120 0 60 60 0 0 0-120 0z" /></svg>