<?xml version="1.0" standalone="no"?><!DOCTYPE svg PUBLIC "-//W3C//DTD SVG 1.1//EN" "http://www.w3.org/Graphics/SVG/1.1/DTD/svg11.dtd"><svg class="icon" width="32px" height="32.00px" viewBox="0 0 1024 1024" version="1.1" xmlns="http://www.w3.org/2000/svg"><path fill="#333333" d="M727.771429 909.061224h-181.812245c-95.608163 0-179.2-38.661224-208.457143-53.812244h-67.918368c-25.6 0-47.020408-20.897959-47.020408-47.020409V431.020408c0-25.6 20.897959-47.020408 47.020408-47.020408h72.09796c12.538776-4.702041 57.469388-22.987755 78.367347-59.036735 7.836735-13.061224 14.628571-42.318367 21.420408-68.963265 11.493878-47.020408 22.465306-91.428571 48.065306-117.55102 23.510204-24.032653 65.306122-31.346939 104.489796-17.763266 50.677551 17.240816 85.159184 62.171429 92.473469 120.163266 6.791837 56.946939-2.612245 110.236735-6.791837 130.612244-1.044898 4.179592 1.044898 6.791837 2.089796 8.359184 1.044898 1.567347 3.657143 3.657143 7.836735 3.657143h119.640816c46.497959 0 100.310204 44.408163 100.310204 101.355102 0 26.122449-39.706122 331.232653-63.216326 369.893878-26.122449 43.363265-88.816327 54.334694-118.595918 54.334693zM134.791837 847.412245c-10.971429 0-19.853061-8.881633-19.853061-19.853061V420.571429c0-10.971429 8.881633-19.853061 19.853061-19.853062s19.853061 8.881633 19.853061 19.853062v406.987755c0 10.971429-8.881633 19.853061-19.853061 19.853061z"  /></svg>