<?xml version="1.0" standalone="no"?><!DOCTYPE svg PUBLIC "-//W3C//DTD SVG 1.1//EN" "http://www.w3.org/Graphics/SVG/1.1/DTD/svg11.dtd"><svg class="icon" width="32px" height="32.00px" viewBox="0 0 1024 1024" version="1.1" xmlns="http://www.w3.org/2000/svg"><path fill="#333333" d="M69.658 476.545c-1.538 1.325-2.978 2.762-4.312 4.299l-1.729 1.725v0.004l-0.483 0.483c-15.922 16.357-15.706 42.661 0.483 58.747l173.072 172.181c16.19 16.086 42.236 15.869 58.159-0.488s15.706-42.661-0.483-58.747l-105.382-104.84h391.739c22.776 0 41.244-18.655 41.244-41.662 0-23.005-18.469-41.662-41.244-41.662h-384.031l97.583-97.342c16.19-16.086 16.406-42.39 0.483-58.747-15.923-16.357-41.969-16.573-58.159-0.488l-166.94 166.532zM852.944 93.867h-363.426c-43.211 2.7-66.004 22.622-68.366 59.771l-0.196 4.85v176.539c-10.044 39.366-61.479 30.142-62.492-3.996v-172.543c0-2.508 0.154-4.987 0.45-7.416l0.067-1.296-0.075-0.004c2.25-35.466 15.547-63.842 39.857-85.093 22.177-19.385 51.135-30.208 86.846-32.438 1.313-0.083 2.612-0.113 3.907-0.116v-0.125h363.426c36.587 0 65.574 11.757 87.067 33.704 19.989 20.406 30.608 47.16 32.204 79.156 0.296 2.438 0.454 4.92 0.454 7.441v713.212h-0.113c0 2.237-0.121 4.491-0.375 6.766l-0.542 4.85-0.133-0.012-0.113 0.979c-5.433 42.252-22.468 70.349-47.19 89.030-22.405 16.931-47.956 23.467-75.169 24.492-2.288 0.25-4.608 0.383-6.962 0.383l-352.557-0.125c-1.296-0.004-2.596-0.034-3.907-0.116-35.712-2.228-64.671-13.053-86.846-32.438-24.309-21.251-37.608-49.627-39.857-85.093l0.075-0.004-0.067-1.296c-0.296-2.429-0.45-4.908-0.45-7.416v-172.543c1.012-34.137 52.447-43.361 62.492-3.996v176.539l0.196 4.85c2.362 37.149 25.155 57.071 68.366 59.771h352.557c34.166-0.188 61.43-12.073 67.562-59.771l0.542-4.85v-713.212c-0.346-37.045-18.931-58.433-57.234-58.433z" /></svg>