<?xml version="1.0" standalone="no"?><!DOCTYPE svg PUBLIC "-//W3C//DTD SVG 1.1//EN" "http://www.w3.org/Graphics/SVG/1.1/DTD/svg11.dtd"><svg class="icon" width="32px" height="32.00px" viewBox="0 0 1024 1024" version="1.1" xmlns="http://www.w3.org/2000/svg"><path fill="#333333" d="M707.584 93.184c-77.312 0-148.992 38.912-196.608 102.912-47.104-64-119.296-102.912-196.608-102.912-139.264 0-252.416 123.904-252.416 275.968 0 90.624 40.448 154.624 73.216 205.824C229.888 723.968 468.48 908.8 478.72 916.48c9.728 7.68 20.992 11.264 32.256 11.264s22.528-3.584 32.256-11.264c10.24-7.68 248.32-193.024 343.552-341.504 32.768-51.2 73.216-115.2 73.216-205.824 0-152.064-113.152-275.968-252.416-275.968z"  /></svg>